Coordinates
version=1
nRows=23
nColumns=38
inDegrees=no

Units are S.I. units (second, meters, Newtons, ...)
If the header above contains a line with 'inDegrees', this indicates whether rotational values are in degrees (yes) or radians (no).

endheader
time	pelvis_tilt	pelvis_list	pelvis_rotation	pelvis_tx	pelvis_ty	pelvis_tz	hip_flexion_r	hip_adduction_r	hip_rotation_r	knee_angle_r	ankle_angle_r	subtalar_angle_r	mtp_angle_r	hip_flexion_l	hip_adduction_l	hip_rotation_l	knee_angle_l	ankle_angle_l	subtalar_angle_l	mtp_angle_l	lumbar_extension	lumbar_bending	lumbar_rotation	arm_flex_r	arm_add_r	arm_rot_r	elbow_flex_r	pro_sup_r	wrist_flex_r	wrist_dev_r	arm_flex_l	arm_add_l	arm_rot_l	elbow_flex_l	pro_sup_l	wrist_flex_l	wrist_dev_l
0	3.06277	1.36444	-1.34503	0.662227	-0.201628	0.947124	-0.226923	0.0333084	-0.081486	0.250027	-0.196076	0	0	-0.225081	-0.0662652	0.0585147	0.219303	-0.193651	0	0	-0.275362	0.0881776	-0.135888	-0.0112267	-0.358316	0.400264	0.733145	1.54318	0	0	0.00371829	-0.268906	0.290954	0.7052	1.5708	0	0
0.01	3.0625	1.36394	-1.34479	0.662284	-0.201779	0.947139	-0.227374	0.0335347	-0.0816096	0.249692	-0.196474	0	0	-0.225397	-0.0664548	0.0584506	0.21937	-0.193656	0	0	-0.276267	0.0881935	-0.135764	-0.0111551	-0.358342	0.400796	0.733638	1.54117	0	0	0.00370055	-0.268662	0.291694	0.705925	1.5708	0	0
0.02	3.06234	1.36365	-1.3448	0.662381	-0.201916	0.947151	-0.227585	0.0336862	-0.0816804	0.249412	-0.196714	0	0	-0.225384	-0.0665832	0.0582777	0.219713	-0.193564	0	0	-0.277071	0.0880112	-0.135468	-0.0112435	-0.358389	0.401386	0.734342	1.53872	0	0	0.00388313	-0.268148	0.291611	0.7065	1.5708	0	0
0.03	3.06221	1.36343	-1.34487	0.662502	-0.20204	0.947171	-0.227864	0.033898	-0.0812484	0.248856	-0.196825	0	0	-0.225225	-0.0666611	0.0581432	0.220273	-0.193486	0	0	-0.27779	0.0877645	-0.135143	-0.0114748	-0.358263	0.401496	0.73509	1.53586	0	0	0.00417378	-0.267602	0.291348	0.706928	1.5708	0	0
0.04	3.06281	1.36323	-1.34565	0.66261	-0.202167	0.947205	-0.228085	0.0338881	-0.0810533	0.248536	-0.196925	0	0	-0.22516	-0.0666686	0.0578265	0.220625	-0.193774	0	0	-0.278485	0.0873158	-0.13477	-0.0118595	-0.358217	0.401489	0.736009	1.53282	0	0	0.0044701	-0.26719	0.291283	0.707202	1.5708	0	0
0.05	3.06493	1.36286	-1.34774	0.662634	-0.202298	0.947255	-0.228558	0.0334068	-0.0818047	0.24828	-0.197232	0	0	-0.225276	-0.0665415	0.0560747	0.22092	-0.194624	0	0	-0.279356	0.0866718	-0.134708	-0.0123363	-0.35802	0.400744	0.73686	1.52988	0	0	0.00477036	-0.266798	0.291063	0.707348	1.5708	0	0
0.06	3.06762	1.36256	-1.35035	0.662597	-0.202428	0.947291	-0.229084	0.0326915	-0.0828503	0.247831	-0.197715	0	0	-0.225352	-0.0663375	0.0532886	0.221245	-0.195517	0	0	-0.280116	0.0859927	-0.134696	-0.0129144	-0.357961	0.399886	0.737739	1.52718	0	0	0.00503544	-0.266368	0.291021	0.707363	1.5708	0	0
0.07	3.06649	1.36209	-1.34954	0.662747	-0.202515	0.947306	-0.229797	0.0332178	-0.0827051	0.246903	-0.198176	0	0	-0.225753	-0.0666765	0.053845	0.221421	-0.195564	0	0	-0.280801	0.0858064	-0.134112	-0.0135461	-0.357612	0.398953	0.738404	1.52515	0	0	0.00518938	-0.266184	0.290667	0.707565	1.5708	0	0
0.08	3.06816	1.36168	-1.35126	0.662792	-0.202608	0.947343	-0.230569	0.03292	-0.0835307	0.246128	-0.198582	0	0	-0.226216	-0.0665475	0.0524489	0.221167	-0.195874	0	0	-0.281406	0.0853418	-0.133898	-0.0140655	-0.357473	0.398214	0.739019	1.52432	0	0	0.00555668	-0.265605	0.290588	0.707229	1.5708	0	0
0.09	3.06805	1.3613	-1.35134	0.662908	-0.20266	0.947365	-0.231342	0.0331584	-0.0836554	0.245136	-0.198993	0	0	-0.226744	-0.0666565	0.0525034	0.220743	-0.196046	0	0	-0.281676	0.0850976	-0.133671	-0.0144268	-0.357	0.397264	0.739165	1.52458	0	0	0.00553173	-0.26523	0.290284	0.707043	1.5708	0	0
0.1	3.07033	1.36161	-1.35362	0.662862	-0.202711	0.947406	-0.231468	0.0324112	-0.0843937	0.244279	-0.199636	0	0	-0.226466	-0.0663154	0.0499379	0.220483	-0.197017	0	0	-0.281957	0.0844054	-0.134196	-0.014479	-0.356966	0.397035	0.739582	1.5257	0	0	0.00511498	-0.264877	0.289244	0.707417	1.5708	0	0
0.11	3.07145	1.36197	-1.35467	0.662837	-0.202754	0.947432	-0.231602	0.0320141	-0.0850285	0.243184	-0.200339	0	0	-0.22599	-0.0661667	0.0483282	0.220683	-0.197512	0	0	-0.282021	0.0836906	-0.134537	-0.0145805	-0.357051	0.397206	0.73989	1.52697	0	0	0.00456886	-0.264791	0.288413	0.708097	1.5708	0	0
0.12	3.07052	1.36236	-1.35374	0.66288	-0.202763	0.947446	-0.231732	0.03225	-0.0851605	0.24178	-0.20104	0	0	-0.22565	-0.0662787	0.0485129	0.220488	-0.197341	0	0	-0.281821	0.0834549	-0.134813	-0.0145272	-0.357133	0.39758	0.740032	1.52818	0	0	0.00414568	-0.264572	0.287401	0.708218	1.5708	0	0
0.13	3.06833	1.36268	-1.35172	0.662997	-0.202736	0.947452	-0.232051	0.0329422	-0.0844369	0.239967	-0.201632	0	0	-0.225509	-0.0665125	0.049955	0.220114	-0.196777	0	0	-0.281575	0.0833587	-0.134942	-0.0144067	-0.357112	0.398044	0.740002	1.52898	0	0	0.00371995	-0.264533	0.286428	0.708364	1.5708	0	0
0.14	3.06572	1.36284	-1.34948	0.663131	-0.202711	0.94746	-0.232385	0.0337202	-0.0834771	0.238462	-0.202019	0	0	-0.225547	-0.0668019	0.0515174	0.219795	-0.196698	0	0	-0.281526	0.0833768	-0.134807	-0.0142854	-0.357215	0.398614	0.739985	1.52916	0	0	0.00341835	-0.264451	0.285363	0.708597	1.5708	0	0
0.15	3.0689	1.36295	-1.35256	0.663035	-0.20273	0.94749	-0.232846	0.0328873	-0.0837615	0.237585	-0.202199	0	0	-0.225583	-0.0662529	0.0488671	0.219429	-0.197375	0	0	-0.281766	0.0825557	-0.135209	-0.0142422	-0.357551	0.398817	0.740041	1.52873	0	0	0.00322751	-0.26431	0.284873	0.708816	1.5708	0	0
0.16	3.07137	1.36304	-1.35476	0.662961	-0.202743	0.947489	-0.233264	0.032375	-0.0838692	0.236868	-0.202491	0	0	-0.225495	-0.0658775	0.0471099	0.219608	-0.19786	0	0	-0.281842	0.0819535	-0.135614	-0.014351	-0.357862	0.39887	0.740088	1.52778	0	0	0.00296399	-0.264405	0.284804	0.709077	1.5708	0	0
0.17	3.07129	1.36274	-1.35464	0.662956	-0.202753	0.947514	-0.233839	0.0324898	-0.0842257	0.236335	-0.203061	0	0	-0.225913	-0.0660274	0.0465128	0.219568	-0.197915	0	0	-0.282231	0.0819056	-0.135706	-0.0143783	-0.358014	0.398774	0.739981	1.52667	0	0	0.00279309	-0.264553	0.284677	0.709372	1.5708	0	0
0.18	3.07029	1.36219	-1.35371	0.662968	-0.202772	0.947562	-0.234654	0.0328395	-0.0843345	0.235657	-0.203513	0	0	-0.226677	-0.0662837	0.0466703	0.219201	-0.197759	0	0	-0.282849	0.0821256	-0.135646	-0.0143637	-0.358309	0.39878	0.739955	1.52534	0	0	0.00277562	-0.264665	0.284476	0.709564	1.5708	0	0
0.19	3.06874	1.36169	-1.35217	0.66302	-0.202779	0.947585	-0.235432	0.0335058	-0.083528	0.234975	-0.20356	0	0	-0.227332	-0.0665639	0.0481954	0.218973	-0.197092	0	0	-0.283244	0.0824278	-0.135613	-0.0144235	-0.358451	0.398613	0.739845	1.5238	0	0	0.00267482	-0.264983	0.284436	0.709952	1.5708	0	0
0.2	3.06691	1.36155	-1.35055	0.663124	-0.202762	0.947563	-0.235495	0.034199	-0.0827033	0.234943	-0.203389	0	0	-0.227545	-0.0668074	0.0499744	0.219011	-0.19671	0	0	-0.283147	0.0825854	-0.135383	-0.0145127	-0.358623	0.398664	0.739734	1.52262	0	0	0.00256098	-0.26531	0.284306	0.710134	1.5708	0	0
0.21	3.06769	1.36137	-1.35135	0.663093	-0.202767	0.947564	-0.235554	0.0339927	-0.0831223	0.235341	-0.203097	0	0	-0.227734	-0.0666878	0.0493001	0.219017	-0.196738	0	0	-0.283255	0.082442	-0.135509	-0.0143824	-0.358846	0.398493	0.739484	1.5212	0	0	0.00252974	-0.265387	0.283928	0.710085	1.5708	0	0
0.22	3.06521	1.36127	-1.34911	0.663191	-0.202738	0.947529	-0.235417	0.0347705	-0.0822054	0.235641	-0.202796	0	0	-0.227811	-0.0670119	0.0513467	0.219212	-0.196244	0	0	-0.283024	0.082728	-0.135354	-0.0144258	-0.359094	0.398633	0.73936	1.51935	0	0	0.00242277	-0.26558	0.283151	0.709952	1.5708	0	0
